{
  "accessors": [
    {
      "bufferView": 2,
      "componentType": 5126,
      "count": 1386,
      "max": [
        2.268620252609253,
        0.5608668327331543,
        0.4551834464073181
      ],
      "min": [
        1.0699856281280518,
        -0.5604462623596191,
        -0.6661298274993896
      ],
      "type": "VEC3"
    },
    {
      "bufferView": 2,
      "byteOffset": 16632,
      "componentType": 5126,
      "count": 1386,
      "max": [
        0.9996036291122437,
        0.9998061060905457,
        0.9998061060905457
      ],
      "min": [
        -0.9801149964332581,
        -0.9998061060905457,
        -0.9998061060905457
      ],
      "type": "VEC3"
    },
    {
      "bufferView": 1,
      "componentType": 5126,
      "count": 1386,
      "max": [
        0.9971398115158081,
        0.04300498217344284
      ],
      "min": [
        0.0020000000949949026,
        0.00200006365776062
      ],
      "type": "VEC2"
    },
    {
      "bufferView": 0,
      "componentType": 5125,
      "count": 7680,
      "type": "SCALAR"
    },
    {
      "bufferView": 2,
      "byteOffset": 33264,
      "componentType": 5126,
      "count": 3065,
      "max": [
        2.268620252609253,
        0.5852634906768799,
        0.4795803129673004
      ],
      "min": [
        -1.6840369701385498,
        -0.5848433971405029,
        -0.6905264854431152
      ],
      "type": "VEC3"
    },
    {
      "bufferView": 2,
      "byteOffset": 70044,
      "componentType": 5126,
      "count": 3065,
      "max": [
        1.0,
        0.9999940395355225,
        0.9999939799308777
      ],
      "min": [
        -1.0,
        -0.9999940395355225,
        -0.9999940395355225
      ],
      "type": "VEC3"
    },
    {
      "bufferView": 1,
      "byteOffset": 11088,
      "componentType": 5126,
      "count": 3065,
      "max": [
        1.0,
        1.0
      ],
      "min": [
        0.0,
        0.0
      ],
      "type": "VEC2"
    },
    {
      "bufferView": 0,
      "byteOffset": 30720,
      "componentType": 5125,
      "count": 15744,
      "type": "SCALAR"
    },
    {
      "bufferView": 2,
      "byteOffset": 106824,
      "componentType": 5126,
      "count": 3355,
      "max": [
        0.3078553080558777,
        0.6360704302787781,
        0.5276163816452026
      ],
      "min": [
        -2.2349088191986084,
        -0.6355055570602417,
        -0.7439597845077515
      ],
      "type": "VEC3"
    },
    {
      "bufferView": 2,
      "byteOffset": 147084,
      "componentType": 5126,
      "count": 3355,
      "max": [
        0.9969831705093384,
        0.9999800324440002,
        0.9999800324440002
      ],
      "min": [
        -1.0,
        -0.9999800324440002,
        -0.999980092048645
      ],
      "type": "VEC3"
    },
    {
      "bufferView": 1,
      "byteOffset": 35608,
      "componentType": 5126,
      "count": 3355,
      "max": [
        1.0,
        1.0
      ],
      "min": [
        0.0,
        0.0
      ],
      "type": "VEC2"
    },
    {
      "bufferView": 0,
      "byteOffset": 93696,
      "componentType": 5125,
      "count": 17280,
      "type": "SCALAR"
    },
    {
      "bufferView": 2,
      "byteOffset": 187344,
      "componentType": 5126,
      "count": 2353,
      "max": [
        -0.2832069396972656,
        0.23274460434913635,
        0.6988840103149414
      ],
      "min": [
        -1.9067513942718506,
        -0.24233737587928772,
        0.35493338108062744
      ],
      "type": "VEC3"
    },
    {
      "bufferView": 2,
      "byteOffset": 215580,
      "componentType": 5126,
      "count": 2353,
      "max": [
        0.9999821782112122,
        0.9999120831489563,
        0.9999916553497314
      ],
      "min": [
        -0.9969873428344727,
        -0.9999597072601318,
        -0.999995768070221
      ],
      "type": "VEC3"
    },
    {
      "bufferView": 1,
      "byteOffset": 62448,
      "componentType": 5126,
      "count": 2353,
      "max": [
        0.9948424100875854,
        0.07241479307413101
      ],
      "min": [
        0.02371855638921261,
        0.0006763358833268285
      ],
      "type": "VEC2"
    },
    {
      "bufferView": 0,
      "byteOffset": 162816,
      "componentType": 5125,
      "count": 14016,
      "type": "SCALAR"
    },
    {
      "bufferView": 2,
      "byteOffset": 243816,
      "componentType": 5126,
      "count": 7522,
      "max": [
        3.654747486114502,
        0.34254589676856995,
        0.1444322019815445
      ],
      "min": [
        2.162400484085083,
        -0.3425753116607666,
        -0.19079306721687317
      ],
      "type": "VEC3"
    },
    {
      "bufferView": 2,
      "byteOffset": 334080,
      "componentType": 5126,
      "count": 7522,
      "max": [
        0.9999985098838806,
        0.9998565912246704,
        0.9999992251396179
      ],
      "min": [
        -0.9999995231628418,
        -0.9998375177383423,
        -0.9999922513961792
      ],
      "type": "VEC3"
    },
    {
      "bufferView": 1,
      "byteOffset": 81272,
      "componentType": 5126,
      "count": 7522,
      "max": [
        0.9973208904266357,
        0.3356002867221832
      ],
      "min": [
        0.0,
        0.0
      ],
      "type": "VEC2"
    },
    {
      "bufferView": 0,
      "byteOffset": 218880,
      "componentType": 5125,
      "count": 45120,
      "type": "SCALAR"
    },
    {
      "bufferView": 2,
      "byteOffset": 424344,
      "componentType": 5126,
      "count": 2440,
      "max": [
        3.04770565032959,
        0.211298868060112,
        0.1186019778251648
      ],
      "min": [
        2.175694465637207,
        -0.2112419158220291,
        -0.25432464480400085
      ],
      "type": "VEC3"
    },
    {
      "bufferView": 2,
      "byteOffset": 453624,
      "componentType": 5126,
      "count": 2440,
      "max": [
        0.9964951276779175,
        1.0,
        1.0
      ],
      "min": [
        -0.00040526839438825846,
        -1.0,
        -0.9999570846557617
      ],
      "type": "VEC3"
    },
    {
      "bufferView": 1,
      "byteOffset": 141448,
      "componentType": 5126,
      "count": 2440,
      "max": [
        1.0,
        1.0
      ],
      "min": [
        0.0,
        0.0
      ],
      "type": "VEC2"
    },
    {
      "bufferView": 0,
      "byteOffset": 399360,
      "componentType": 5125,
      "count": 13824,
      "type": "SCALAR"
    },
    {
      "bufferView": 2,
      "byteOffset": 482904,
      "componentType": 5126,
      "count": 1650,
      "max": [
        0.1772584617137909,
        0.6338826417922974,
        0.5254283547401428
      ],
      "min": [
        -1.9063358306884766,
        -0.633317768573761,
        -0.741771936416626
      ],
      "type": "VEC3"
    },
    {
      "bufferView": 2,
      "byteOffset": 502704,
      "componentType": 5126,
      "count": 1650,
      "max": [
        0.9922387599945068,
        0.9999673962593079,
        0.9999673366546631
      ],
      "min": [
        -0.9999918937683105,
        -0.9999673962593079,
        -0.9999673962593079
      ],
      "type": "VEC3"
    },
    {
      "bufferView": 1,
      "byteOffset": 160968,
      "componentType": 5126,
      "count": 1650,
      "max": [
        0.9953197240829468,
        0.0710550993680954
      ],
      "min": [
        0.0020000000949949026,
        0.0019999563228338957
      ],
      "type": "VEC2"
    },
    {
      "bufferView": 0,
      "byteOffset": 454656,
      "componentType": 5125,
      "count": 9216,
      "type": "SCALAR"
    }
  ],
  "asset": {
    "extras": {
      "author": "gazgolder (https://sketchfab.com/gazgolder)",
      "license": "CC-BY-4.0 (http://creativecommons.org/licenses/by/4.0/)",
      "source": "https://sketchfab.com/3d-models/fountain-pen-b4676e41c38a4348af933f1d00051afb",
      "title": "Fountain Pen"
    },
    "generator": "Sketchfab-15.42.0",
    "version": "2.0"
  },
  "bufferViews": [
    {
      "buffer": 0,
      "byteLength": 491520,
      "name": "floatBufferViews",
      "target": 34963
    },
    {
      "buffer": 0,
      "byteLength": 174168,
      "byteOffset": 491520,
      "byteStride": 8,
      "name": "floatBufferViews",
      "target": 34962
    },
    {
      "buffer": 0,
      "byteLength": 522504,
      "byteOffset": 665688,
      "byteStride": 12,
      "name": "floatBufferViews",
      "target": 34962
    }
  ],
  "buffers": [
    {
      "byteLength": 1188192,
      "uri": "scene.bin"
    }
  ],
  "materials": [
    {
      "doubleSided": true,
      "name": "Stainless_Steel",
      "pbrMetallicRoughness": {
        "baseColorFactor": [
          0.775209617965722,
          0.775209617965722,
          0.775209617965722,
          1.0
        ],
        "roughnessFactor": 0.2761882702880619
      }
    },
    {
      "doubleSided": true,
      "name": "red_plastic",
      "pbrMetallicRoughness": {
        "baseColorFactor": [
          0.294118,
          0.0,
          0.0,
          1.0
        ],
        "metallicFactor": 0.0,
        "roughnessFactor": 0.1542831368628934
      }
    },
    {
      "doubleSided": true,
      "name": "black_plastic",
      "pbrMetallicRoughness": {
        "baseColorFactor": [
          0.00392157,
          0.00392157,
          0.00392157,
          1.0
        ],
        "metallicFactor": 0.0,
        "roughnessFactor": 0.1908546768904439
      }
    }
  ],
  "meshes": [
    {
      "name": "pen 2_Stainless_Steel_0",
      "primitives": [
        {
          "attributes": {
            "NORMAL": 1,
            "POSITION": 0,
            "TEXCOORD_0": 2
          },
          "indices": 3,
          "material": 0,
          "mode": 4
        }
      ]
    },
    {
      "name": "Object005_red plastic_0",
      "primitives": [
        {
          "attributes": {
            "NORMAL": 5,
            "POSITION": 4,
            "TEXCOORD_0": 6
          },
          "indices": 7,
          "material": 1,
          "mode": 4
        }
      ]
    },
    {
      "name": "Object006_red plastic_0",
      "primitives": [
        {
          "attributes": {
            "NORMAL": 9,
            "POSITION": 8,
            "TEXCOORD_0": 10
          },
          "indices": 11,
          "material": 1,
          "mode": 4
        }
      ]
    },
    {
      "name": "Object004_Stainless_Steel_0",
      "primitives": [
        {
          "attributes": {
            "NORMAL": 13,
            "POSITION": 12,
            "TEXCOORD_0": 14
          },
          "indices": 15,
          "material": 0,
          "mode": 4
        }
      ]
    },
    {
      "name": "Object001_Stainless_Steel_0",
      "primitives": [
        {
          "attributes": {
            "NORMAL": 17,
            "POSITION": 16,
            "TEXCOORD_0": 18
          },
          "indices": 19,
          "material": 0,
          "mode": 4
        }
      ]
    },
    {
      "name": "Object002_black plastic_0",
      "primitives": [
        {
          "attributes": {
            "NORMAL": 21,
            "POSITION": 20,
            "TEXCOORD_0": 22
          },
          "indices": 23,
          "material": 2,
          "mode": 4
        }
      ]
    },
    {
      "name": "Object003_Stainless_Steel_0",
      "primitives": [
        {
          "attributes": {
            "NORMAL": 25,
            "POSITION": 24,
            "TEXCOORD_0": 26
          },
          "indices": 27,
          "material": 0,
          "mode": 4
        }
      ]
    }
  ],
  "nodes": [
    {
      "children": [
        1
      ],
      "matrix": [
        5.959746837615967,
        0.0,
        0.0,
        0.0,
        0.0,
        1.323329632011642e-15,
        -5.959746837615967,
        0.0,
        0.0,
        5.959746837615967,
        1.323329632011642e-15,
        0.0,
        0.0,
        0.0,
        0.0,
        1.0
      ],
      "name": "Sketchfab_model"
    },
    {
      "children": [
        2
      ],
      "matrix": [
        0.02539999969303608,
        0.0,
        0.0,
        0.0,
        0.0,
        0.0,
        0.02539999969303608,
        0.0,
        0.0,
        -0.02539999969303608,
        0.0,
        0.0,
        0.0,
        0.0,
        0.0,
        1.0
      ],
      "name": "728de158804e493386d2c0aa0e08257d.fbx"
    },
    {
      "children": [
        3
      ],
      "name": "RootNode"
    },
    {
      "children": [
        4,
        6,
        8,
        10,
        12,
        14,
        16
      ],
      "matrix": [
        1.0,
        0.0,
        0.0,
        0.0,
        0.0,
        2.220446049250313e-16,
        -1.0,
        0.0,
        0.0,
        1.0,
        2.220446049250313e-16,
        0.0,
        0.0,
        2.3013014793395996,
        0.0,
        1.0
      ],
      "name": "HeroObjectGroup"
    },
    {
      "children": [
        5
      ],
      "matrix": [
        0.6427874986557058,
        -5.619426904360803e-08,
        -0.7660445362848938,
        0.0,
        1.5439252193286296e-07,
        0.9999999999999865,
        5.619427057013108e-08,
        0.0,
        0.7660445362848802,
        -1.543925224884718e-07,
        0.6427874986557058,
        0.0,
        -0.3770533800125122,
        -0.00030037504620850086,
        0.478909969329834,
        1.0
      ],
      "name": "pen 2"
    },
    {
      "mesh": 0,
      "name": "pen 2_Stainless_Steel_0"
    },
    {
      "children": [
        7
      ],
      "matrix": [
        0.6427873636292546,
        -4.8130752627378065e-05,
        -0.7660446480734547,
        0.0,
        7.489594564276277e-05,
        0.9999999971952985,
        1.490115997086083e-08,
        0.0,
        0.7660446459242111,
        -5.738321659937148e-05,
        0.6427873654312262,
        0.0,
        -0.3770533800125122,
        -0.00027677416801452637,
        0.478909969329834,
        1.0
      ],
      "name": "Object005"
    },
    {
      "mesh": 1,
      "name": "Object005_red plastic_0"
    },
    {
      "children": [
        9
      ],
      "matrix": [
        0.6427873986076358,
        -4.810094846094159e-05,
        -0.7660446187249977,
        0.0,
        7.483181597905759e-05,
        0.9999999972000997,
        3.3881317890172014e-21,
        0.0,
        0.7660446165801492,
        -5.732450994017636e-05,
        0.6427874004073764,
        0.0,
        -0.3770533800125122,
        -0.00027677416801452637,
        0.478909969329834,
        1.0
      ],
      "name": "Object006"
    },
    {
      "mesh": 2,
      "name": "Object006_red plastic_0"
    },
    {
      "children": [
        11
      ],
      "matrix": [
        0.6427873636292546,
        -4.8130752627378065e-05,
        -0.7660446480734547,
        0.0,
        7.489594564276277e-05,
        0.9999999971952985,
        1.490115997086083e-08,
        0.0,
        0.7660446459242111,
        -5.738321659937148e-05,
        0.6427873654312262,
        0.0,
        -0.3770533800125122,
        -0.00027677416801452637,
        0.478909969329834,
        1.0
      ],
      "name": "Object004"
    },
    {
      "mesh": 3,
      "name": "Object004_Stainless_Steel_0"
    },
    {
      "children": [
        13
      ],
      "matrix": [
        0.6888758573290332,
        -5.1571612764528386e-05,
        -0.8209708829684688,
        0.0,
        9.453687128203249e-05,
        1.2610360348551357,
        1.1024286467014037e-07,
        0.0,
        1.099561354056102,
        -8.251215816969872e-05,
        0.9226408517409588,
        0.0,
        -0.5033737421035767,
        -0.0002640836755745113,
        0.6451544761657715,
        1.0
      ],
      "name": "Object001"
    },
    {
      "mesh": 4,
      "name": "Object001_Stainless_Steel_0"
    },
    {
      "children": [
        15
      ],
      "matrix": [
        0.6888758517011221,
        -5.157160952945326e-05,
        -0.8209708876908438,
        0.0,
        9.449882339390434e-05,
        1.2610349619743808,
        7.838863626345588e-08,
        0.0,
        1.0995606298280742,
        -8.245569188319686e-05,
        0.9226402311934958,
        0.0,
        -0.47478657960891724,
        -0.00027995032723993063,
        0.641359806060791,
        1.0
      ],
      "name": "Object002"
    },
    {
      "mesh": 5,
      "name": "Object002_black plastic_0"
    },
    {
      "children": [
        17
      ],
      "matrix": [
        0.6427873636292546,
        -4.8130752627378065e-05,
        -0.7660446480734547,
        0.0,
        7.489594564276277e-05,
        0.9999999971952985,
        1.490115997086083e-08,
        0.0,
        0.7660446459242111,
        -5.738321659937148e-05,
        0.6427873654312262,
        0.0,
        -0.3770533800125122,
        -0.00027677416801452637,
        0.478909969329834,
        1.0
      ],
      "name": "Object003"
    },
    {
      "mesh": 6,
      "name": "Object003_Stainless_Steel_0"
    }
  ],
  "scene": 0,
  "scenes": [
    {
      "name": "Sketchfab_Scene",
      "nodes": [
        0
      ]
    }
  ]
}
